<?xml version="1.0" encoding="UTF-8" standalone="no"?>
<!-- Created with Inkscape (http://www.inkscape.org/) -->

<svg
   xmlns:dc="http://purl.org/dc/elements/1.1/"
   xmlns:cc="http://creativecommons.org/ns#"
   xmlns:rdf="http://www.w3.org/1999/02/22-rdf-syntax-ns#"
   xmlns:svg="http://www.w3.org/2000/svg"
   xmlns="http://www.w3.org/2000/svg"
   xmlns:sodipodi="http://sodipodi.sourceforge.net/DTD/sodipodi-0.dtd"
   xmlns:inkscape="http://www.inkscape.org/namespaces/inkscape"
   width="210mm"
   height="297mm"
   viewBox="0 0 210 297"
   version="1.1"
   id="svg6198"
   inkscape:version="0.92.2 (5c3e80d, 2017-08-06)"
   sodipodi:docname="DSC.svg">
  <defs
     id="defs6192" />
  <sodipodi:namedview
     id="base"
     pagecolor="#ffffff"
     bordercolor="#666666"
     borderopacity="1.0"
     inkscape:pageopacity="0.0"
     inkscape:pageshadow="2"
     inkscape:zoom="0.35"
     inkscape:cx="-75.714286"
     inkscape:cy="560"
     inkscape:document-units="mm"
     inkscape:current-layer="layer1"
     showgrid="false"
     inkscape:snap-text-baseline="true"
     showguides="false"
     inkscape:window-width="1366"
     inkscape:window-height="705"
     inkscape:window-x="-8"
     inkscape:window-y="-8"
     inkscape:window-maximized="1" />
  <metadata
     id="metadata6195">
    <rdf:RDF>
      <cc:Work
         rdf:about="">
        <dc:format>image/svg+xml</dc:format>
        <dc:type
           rdf:resource="http://purl.org/dc/dcmitype/StillImage" />
        <dc:title></dc:title>
      </cc:Work>
    </rdf:RDF>
  </metadata>
  <g
     inkscape:label="Capa 1"
     inkscape:groupmode="layer"
     id="layer1">
    <text
       xml:space="preserve"
       style="font-style:normal;font-variant:normal;font-weight:bold;font-stretch:normal;font-size:88.3671875px;line-height:1.25;font-family:Aharoni;-inkscape-font-specification:'Aharoni, Bold';font-variant-ligatures:normal;font-variant-caps:normal;font-variant-numeric:normal;text-align:center;letter-spacing:0px;word-spacing:0px;writing-mode:lr-tb;text-anchor:middle;fill:#0000ff;fill-opacity:1;stroke:none;stroke-width:0.46024576"
       x="179.32631"
       y="132.02258"
       id="text6202"
       transform="scale(0.6496088,1.539388)"><tspan
         sodipodi:role="line"
         id="tspan6200"
         x="179.32631"
         y="132.02258"
         style="font-size:88.3671875px;text-align:center;text-anchor:middle;fill:#0000ff;stroke-width:0.46024576">D.S.C.</tspan></text>
    <path
       style="fill:#808080;fill-opacity:1;stroke-width:1.3149879"
       d="m 108.56668,203.34701 c -3.23927,-1.33427 -8.821097,-6.8159 -8.821097,-8.66277 0,-0.41444 0.903087,-4.52118 2.006867,-9.12609 1.7323,-7.22708 2.15496,-7.94971 3.08931,-5.28184 1.58969,4.53912 7.1315,7.59585 9.65279,5.32426 2.33739,-2.10591 3.36159,-8.05321 2.21962,-12.88882 -0.41073,-1.73924 -3.18884,-5.08803 -6.17357,-7.44175 -7.28514,-5.745 -9.28369,-11.01349 -9.28369,-24.47329 0,-23.31192 8.9679,-35.06631 20.10703,-26.35465 3.58411,2.80305 3.67556,3.47351 1.76725,12.95654 l -1.38699,6.89246 -3.32015,-3.09056 c -4.51028,-4.1984 -7.81339,-1.00568 -7.41599,7.16816 0.23474,4.82827 0.98753,6.14679 5.82208,10.19739 7.80865,6.54244 9.835,11.82756 9.78052,25.50953 -0.0874,21.94049 -7.32746,33.68557 -18.04398,29.27143 z"
       id="path6204"
       inkscape:connector-curvature="0" />
    <path
       style="fill:#808080;fill-opacity:1;stroke-width:1.3149879"
       d="m 161.06172,203.71146 c -8.96039,-4.06026 -16.06154,-24.15562 -16.02331,-45.34392 0.0464,-25.71195 8.57095,-45.85392 19.38089,-45.7935 8.44023,0.0472 8.78987,0.62117 8.78987,14.43037 v 11.96155 l -2.70424,-3.31385 c -4.09971,-5.02389 -9.64796,-2.8659 -12.98933,5.05218 -2.34122,5.54804 -2.67233,7.70249 -2.67233,17.38833 0,9.68585 0.33111,11.8403 2.67233,17.38833 3.34137,7.91809 8.88962,10.07608 12.98933,5.05219 l 2.70424,-3.31385 v 12.10591 12.10592 l -3.20336,1.28062 c -1.76184,0.70434 -3.77996,1.54144 -4.48469,1.86021 -0.70474,0.31878 -2.71147,-0.0684 -4.4594,-0.86049 z"
       id="path6206"
       inkscape:connector-curvature="0" />
    <path
       style="fill:#00ffff;fill-opacity:1;stroke-width:1.3149879"
       d="m 105.55363,200.54802 c -2.20857,-1.67555 -4.24239,-3.91613 -4.51961,-4.97906 -0.75549,-2.89677 2.07264,-14.6102 3.24637,-13.44566 6.68983,6.63753 10.95237,6.32147 12.59087,-0.93358 1.49899,-6.63732 0.41892,-9.54394 -6.21181,-16.71677 -7.20508,-7.79412 -8.36121,-10.51913 -8.89982,-20.97694 -0.80551,-15.64001 5.13357,-30.96042 11.99348,-30.93833 4.82596,0.0156 9.91085,3.64475 9.91085,7.07359 0,6.13989 -2.0007,13.32567 -3.35551,12.05176 -5.5216,-5.19192 -9.45791,-2.5009 -9.45791,6.46579 0,4.08006 1.013,5.95789 6.28556,11.65181 3.45706,3.73332 6.91668,8.92309 7.68805,11.53282 3.01446,10.19866 0.91278,29.56991 -4.04304,37.2648 -2.99435,4.64931 -10.4165,5.59967 -15.22748,1.94977 z"
       id="path6208"
       inkscape:connector-curvature="0" />
    <path
       style="fill:#00ffff;fill-opacity:1;stroke-width:1.3149879"
       d="m 181.03604,201.86072 c -0.62839,-0.94388 -1.0128,-3.89043 -0.85423,-6.54791 0.34643,-5.80614 3.85534,-6.77737 5.27102,-1.45895 1.62762,6.11459 -1.68211,12.11452 -4.41679,8.00686 z"
       id="path6210"
       inkscape:connector-curvature="0" />
    <path
       style="fill:#00ffff;fill-opacity:1;stroke-width:1.3149879"
       d="m 88.836403,201.2688 c -1.624874,-3.85049 -1.242628,-9.35791 0.753701,-10.85939 2.51926,-1.89479 4.929598,3.87034 3.642736,8.7128 -1.18059,4.44254 -3.043688,5.35221 -4.396437,2.14659 z"
       id="path6212"
       inkscape:connector-curvature="0" />
  </g>
</svg>
